<?xml version="1.0" encoding="UTF-8"?>
<svg id="Layer_2" data-name="Layer 2" xmlns="http://www.w3.org/2000/svg" viewBox="0 0 53.25 52.38">
  <g id="Layer_1-2" data-name="Layer 1">
    <path d="M32.51,46.13l-1.8,3.59c-.05.1,0,.27-.16.33l.65-3.06c-.95.61-1.89.99-2.91,1.19l-2.63,2.8-1.36,1.39c0-.29.23-.44.35-.67l1.77-3.18.25-.36c-.99-.24-1.87-.65-2.67-1.27-.18-.14-.37-.23-.58-.07l-3.46,2.52,1.68-2.61-1.89-.45c-1.98.84-3.94,1.6-6.03,2.27l3.87-2.58c-1.12-.68-1.97-1.55-2.61-2.63-2.21.07-4.34.11-6.53-.01l6.06-1.49c.08-.02.07-.17,0-.2l-.2-.07-4.58-1.78-1.73-.11-3.87-.4,4.17-.81c-.54-.77-.96-1.59-1.19-2.51l-1.7-.85-4.32-2.36c2,.49,3.86,1.09,5.88,1.69-.16-1.13-.26-2.16-.19-3.25-.53-.58-.94-1.17-1.36-1.81-.12-.18-.33-.24-.5-.38-1.69-1.33-3.34-2.65-4.93-4.16,1.7.78,3.22,1.64,4.86,2.52-.46-1.37-.6-2.72-.26-4.11l-1.16-2.66-1.8-4.08-.09-.12c-.04-.06.02-.12.08-.08.07.04.06.13.08.17l2.29,3.25c.53.75,1,1.46,1.4,2.24.31-.68.69-1.22,1.14-1.81-.4-2.01-.18-4.01.61-5.84l-.42-4.79,1.34,3.56c.45-.54.87-.98,1.37-1.43l-.49-5.82c.18.32.26.66.35,1.03l1.11,4.08c.82-.62,1.73-.95,2.65-1.35.3-.43.55-.96.94-1.38l.5-3.97.36,2.94c1.03-.77,2.03-1.38,3.2-1.7l.67-1.57c.7-1.37,1.47-2.69,2.41-3.95l-1.51,5.32c1.43-.08,2.79.03,4.2.43,1.62-.96,3.4-1.56,5.25-1.92l.97-.25c-.26.25-.56.34-.87.51l-3.29,1.86c-.18.1-.34.18-.46.33l2.02.78,1.45-.6c1.46-.61,3.02-.73,4.58-.4,1.07-.99,2.12-1.87,3.29-2.65-.82,1.01-1.67,1.89-2.57,2.8.17.15.36.2.55.27.92.33,1.71.85,2.47,1.48l1.13,1.09c1.97-.47,3.8-1.01,5.78-1.36l-3.25,1.62-1.91.96c2,.32,3.65,1.28,5.01,2.74l4.27.66,1.48.26c.06,0,.05.1-.04.11l-.97.06-4.07.38c.43.92.71,1.84.99,2.79.05.18.07.37.2.51,1.06.58,2.15,1.04,3.12,1.8l-4.1-1.09c-.05-.1-.18-.02-.1.06,1.26.79,2.33,1.72,3.39,2.74,1.72.81,3.41,1.6,5.04,2.6l-4.22-1.16c.41,1.04.58,2.08.4,3.22l2.78,2.88,1.09,1.24-2.02-1.39-2.06-1.53c-.27.78-.63,1.47-1.03,2.16.46,1.04.7,2.08.82,3.21l2.92,5.23-2.41-2.5-1-1.1c-.27.87-.61,1.61-1.13,2.3l-.71.96.28,5.34-1.57-4.15-1.23.74c-.17.1-.33.19-.42.37l-1.02,1.99-.46,5.83-.47-2.74-.28-1.65c-.67.54-1.35,1.07-2.17,1.35l-1.24.42c-1.01,1.93-2.1,3.76-3.22,5.59l1.05-4.14.36-1.24-2.05-.02-1.07-.05-.62,1.06ZM19.82,8.57l1.68-.98c.33-.19.63-.38,1.02-.53-2.71-.43-5.08.13-7.14,2l3.75-.37c.23-.02.5-.01.68-.12ZM25.45,7.9c-.49-.25-.93-.37-1.44-.46-.77.48-1.53.87-2.25,1.47l3.69-1.01ZM36.91,10.02c-1.14-1.31-2.59-2.08-4.2-2.33-1.16-.13-2.25,0-3.37.42,1.84.81,3.71,1.36,5.68,1.61l1.9.3ZM26.17,43.82c.93-.32,1.75-.38,2.66-.49l-1.49-1.58c-.13-.02-.06-.17.02-.08l4.06,1.45c.26.09.58.22.85.16.32-.07.57-.37.74-.61-1.64-1.83-3.24-3.53-4.75-5.42l1.49,1.04c1.55,1.09,3.03,2.18,4.53,3.39,1.29-.78,2.62-1.32,4.05-1.85l-3.67-3.64c.33.08.56.21.85.35l4.78,2.31,1.56-.41.38-1.25.33-1.24-3.1-.23-1.77-.09,4.4-1.15,1-.22.92-1.82c.43-.85.99-1.59,1.59-2.34-.15-.06-.25.07-.37.11-2.02.63-4,1.19-6.09,1.66l3.44-1.73c1.17-.59,2.28-1.19,3.31-2.02-.61-1.2-1.05-2.45-1.27-3.8l-1.7,1.06-3.15,1.83,1.77-1.7,2.81-2.66-.05-2.18c0-.07.08-.13.11-.13.02,0,.07.03.11.06l1.07.78s.02-.08,0-.11l-1.24-1.16-2.45-1.85c-.05.89-.16,1.65-.31,2.47l-.53,2.9-.63-5.7-.17-1.58c-.15-.62-.51-1.17-.79-1.69-1.03,1.68-1.91,3.3-3.04,4.86l2.21-5.62c.1-.25.1-.44-.08-.65l-.93-1.54c-1.42-.19-2.8-.34-4.28-.65l.91,5.57c-.78-1.93-1.39-3.89-2.02-5.87-1.68-.45-3.26-.96-4.81-1.66-.09-.04-.13-.13-.27-.08-1.03.38-2.05.75-3.08,1.02,1.05,1.07,2.1,2.07,2.98,3.29l-4.13-2.92c-.83.12-1.59.18-2.42.26-1.83,1.07-3.54,2.25-5.24,3.53,1.55.72,3.12,1.39,4.67,2.33-1.73-.39-3.39-.97-5.1-1.51l-1.42-.43-1.37,2.54c1.89-.1,3.65-.16,5.52-.06-1.31.41-2.61.66-3.95.95l-2.81.61c-.78.93-1.51,1.8-2.33,2.66l.43,1.89,3-1.84,2.42-1.35c-1.67,1.75-3.43,3.24-5.23,4.81v1.24c-.02,1.45-.26,2.86-.43,4.3l.57.72c.2-.56.49-1.05.83-1.58l3.13-4.95-1.1,3.18-1.63,4.43,1.37,2.53c.58,1.08,1.17,2.09,1.92,3.08l-.05-.66.14-5.64,1.28,7.77c-1.03.17-2.29-.25-3.14-.8l-1.23-2.36c-.44-.84-.93-1.62-1.51-2.37l-.84-1.08c.02,1.15.18,2.18.49,3.22.58,1.9,2.41,2.99,4.27,3.48l3.19.84c1.41.29,2.74.7,3.96,1.49.04-.08.03-.15,0-.23-.49-1.68-1.05-3.28-1.44-5.08l1.57,2.86,1.58,3.3c.37.78,1.31,1.27,1.96,1.86.2.18.7-.14.77-.36l-.99-3.43-.47-1.82,1.39,2.47,1.44,2.6ZM14,13.08l2.61-1.54c.6-.35,1.16-.71,1.8-.91-.21-.13-.38,0-.55.02-1.2.14-2.37.26-3.52.61-.16.62-.3,1.2-.33,1.83ZM11.84,12.99l.55-1.24c-1.38.68-2.53,1.62-3.46,2.8-.12.13-.3.2-.32.42,1.03-.74,2.08-1.36,3.23-1.98ZM39.22,11.99c.88,1.05,1.57,2.12,2.24,3.28.6,1.04,1.45,1.85,2.53,2.51-.71-2.74-1.93-4.9-4.78-5.78ZM8.03,19.4c.2-.4.44-.73.71-1.1l2.5-3.44c-.15-.05-.23.08-.35.13-.93.39-1.77.86-2.53,1.49-.68.57-.47,1.87-.33,2.91ZM6.74,21.25c-.03-.21.01-.37-.15-.52-.07.42.09.76.24,1.1.11-.22-.07-.41-.1-.58ZM47.32,27.17c.51-1.32.56-2.8-.05-4.04-.31-.62-.94-.96-1.41-1.42-.05.35.05.58.1.86.28,1.58.66,3.14,1.37,4.6ZM7.14,28.9c.22-.97.29-1.8.36-2.69,0-1.2-.06-2.35-.39-3.53-1.34,1.82-1.01,4.24.03,6.22ZM45.15,36.52c.61-.71,1.07-1.49,1.46-2.35.52-1.16.52-2.18.33-3.39l-.61,1.02c-.52.86-.98,1.72-1.37,2.64l-.87,2.07c-.48.88-1.17,1.45-2.09,1.88,1.13-.24,2.43-1.02,3.17-1.87ZM36.6,43.26c2.17-.31,3.9-1.24,5.39-2.9l-2.07.69c-1.28.43-2.54.83-3.75,1.42l-1.63.9,2.06-.11ZM22.08,44.71l-1.23-.77c-1.02-.63-2.01-1.23-3.14-1.59l-1.95-.63.78.95c1.14,1.4,2.85,2.11,4.67,2.06l.87-.02ZM31.15,45.13l-1.4-.09c-1.41-.09-2.78.22-4.1.84,1.95.98,3.85.38,5.49-.75Z"/>
  </g>
</svg>